<svg id="Calque_1" data-name="Calque 1" xmlns="http://www.w3.org/2000/svg" xmlns:xlink="http://www.w3.org/1999/xlink" viewBox="0 0 296 70"><defs><style>.cls-1{fill:url(#Dégradé_sans_nom_22);}</style><linearGradient id="Dégradé_sans_nom_22" x1="148.14" y1="38.62" x2="148.14" y2="104.55" gradientUnits="userSpaceOnUse"><stop offset="0" stop-color="#2bcbba"/><stop offset="0.62" stop-color="#338ccc"/><stop offset="0.75" stop-color="#3580cf"/><stop offset="1" stop-color="#3867d6"/></linearGradient></defs><title>logoTextPlan de travail 1</title><path class="cls-1" d="M20.48,68.09,1,5.62H12.75L21.54,37q1.52,5.35,2.72,10.13t2.82,10.22h.38q1.62-5.45,2.81-10.22T32.9,37L41.59,5.62H53L33.57,68.09Z"/><path class="cls-1" d="M65.09,13a7,7,0,0,1-4.87-1.72,5.75,5.75,0,0,1-1.91-4.49,5.89,5.89,0,0,1,1.91-4.54,7.58,7.58,0,0,1,9.74,0,5.92,5.92,0,0,1,1.91,4.54A5.78,5.78,0,0,1,70,11.26,7,7,0,0,1,65.09,13ZM59.55,68.09V21.19h11v46.9Z"/><path class="cls-1" d="M84.57,68.09V21.19h9.08l.76,8.31h.38a19.63,19.63,0,0,1,6-7A12.68,12.68,0,0,1,108.07,20a12.52,12.52,0,0,1,5.35,1l-1.91,9.55a21.93,21.93,0,0,0-2.3-.57,14.43,14.43,0,0,0-2.57-.19,10.19,10.19,0,0,0-5.83,2.15q-3.06,2.14-5.25,7.49V68.09Z"/><path class="cls-1" d="M136.72,69.23A17.06,17.06,0,0,1,129.8,68a11.76,11.76,0,0,1-4.59-3.49,14.29,14.29,0,0,1-2.58-5.34,27.46,27.46,0,0,1-.81-6.93V29.88h-6.68V21.67l7.25-.48,1.34-12.8h9.17v12.8h11.94v8.69H132.9V52.23q0,8.22,6.59,8.22a12.31,12.31,0,0,0,4.87-1.06l1.91,8.12a35.58,35.58,0,0,1-4.34,1.2A24.74,24.74,0,0,1,136.72,69.23Z"/><path class="cls-1" d="M168.62,69.23q-7.55,0-11-4.82c-2.29-3.21-3.44-7.82-3.44-13.8V21.19h11v28c0,3.89.58,6.63,1.72,8.22s3,2.39,5.54,2.39a9.64,9.64,0,0,0,5.4-1.53,22.1,22.1,0,0,0,5-5V21.19h11v46.9h-9L184,61.21h-.29A27.7,27.7,0,0,1,177.07,67,15.85,15.85,0,0,1,168.62,69.23Z"/><path class="cls-1" d="M219.15,69.23a13.64,13.64,0,0,1-10-3.77,13.38,13.38,0,0,1-3.82-10,13.74,13.74,0,0,1,1.57-6.64,13.59,13.59,0,0,1,5-5,33.2,33.2,0,0,1,8.6-3.54A79.24,79.24,0,0,1,232.9,38.1a17.9,17.9,0,0,0-.52-3.49,8.09,8.09,0,0,0-1.44-3,6.63,6.63,0,0,0-2.62-2,10.1,10.1,0,0,0-4-.71,17.79,17.79,0,0,0-6.74,1.33,46.84,46.84,0,0,0-6.44,3.25l-4-7.35a46.65,46.65,0,0,1,8.79-4.3A29.87,29.87,0,0,1,226.41,20q8.78,0,13.13,5.21t4.35,15v27.8h-9.08l-.76-5.16h-.38a34.84,34.84,0,0,1-6.74,4.49A17,17,0,0,1,219.15,69.23Zm3.53-8.59a10.34,10.34,0,0,0,5.21-1.34,28,28,0,0,0,5-3.82V45a49.47,49.47,0,0,0-8,1.53,22.88,22.88,0,0,0-5.25,2.15,7.65,7.65,0,0,0-2.87,2.72,6.56,6.56,0,0,0-.86,3.25,5.35,5.35,0,0,0,1.91,4.58A7.87,7.87,0,0,0,222.68,60.64Z"/><path class="cls-1" d="M267.76,69.23q-5.92,0-8.31-3.53t-2.38-9.65V.65h11v56a4.07,4.07,0,0,0,.76,2.81,2.23,2.23,0,0,0,1.63.81h.71a3.94,3.94,0,0,0,1-.19l1.43,8.22A15,15,0,0,1,267.76,69.23Z"/><path class="cls-1" d="M288.49,13a7,7,0,0,1-4.87-1.72,5.75,5.75,0,0,1-1.91-4.49,5.89,5.89,0,0,1,1.91-4.54,7.58,7.58,0,0,1,9.74,0,5.92,5.92,0,0,1,1.91,4.54,5.78,5.78,0,0,1-1.91,4.49A7,7,0,0,1,288.49,13ZM283,68.09V21.19h11v46.9Z"/></svg>