<svg id="Calque_1" data-name="Calque 1" xmlns="http://www.w3.org/2000/svg" xmlns:xlink="http://www.w3.org/1999/xlink" viewBox="0 0 200 200"><defs><style>.cls-1{fill:none;}.cls-2{clip-path:url(#clip-path);}.cls-3{fill:#878787;}.cls-4{fill:#f4e3d6;}.cls-5{fill:#f3d1bb;}.cls-6{fill:#e30613;}</style><clipPath id="clip-path"><circle class="cls-1" cx="100" cy="100" r="100" transform="translate(-41.42 100) rotate(-45)"/></clipPath></defs><title>logoTextPlan de travail 1</title><g class="cls-2"><circle class="cls-3" cx="100" cy="100" r="100" transform="translate(-41.42 100) rotate(-45)"/><path class="cls-4" d="M116.22,142.34c-4.12-6-6.55-11.8-6.39-19.19a2.07,2.07,0,0,0-2.55-2.1,2.12,2.12,0,0,0-.52-.46c-6.22-4-14.25-3-20.88-.59a1.71,1.71,0,0,0-1,1.14,1.45,1.45,0,0,0-1.2,1.88c2,8.67-1.06,14.44-5.09,21.75A16,16,0,0,0,77,157.26c2.93,10,13.23,14.52,23,14,9.43-.53,18.86-5.24,20.25-15.45C120.88,150.66,119.07,146.48,116.22,142.34Z"/><path class="cls-5" d="M133.69,82.35a57.38,57.38,0,0,0,.11-13.53c-2.84-22.3-31.18-23.46-36-23.35-17.68.43-28.65,8.45-31.28,17.83a72.32,72.32,0,0,0-2.47,19.93,4.79,4.79,0,0,0-4.33,1.46C58,86.54,58,89.41,58.24,91.77s1.18,4.9,3.35,6.17a5,5,0,0,0,3.8.6c.06.36.11.72.17,1.08a1.24,1.24,0,0,0,.24.56,43.51,43.51,0,0,0,7.53,17.75c10.26,14,29.23,17.87,42.84,6.38,7.23-6.09,11.49-14.76,13.9-23.76.19-.74.39-1.49.58-2.25a1.87,1.87,0,0,0,.73.11C138.41,98,139.71,84.09,133.69,82.35Z"/><path class="cls-6" d="M169.5,222.15a196,196,0,0,0-12.67-56.73c-2.47-6.41-5-12.48-11.57-15.47A108.62,108.62,0,0,0,117,142a.65.65,0,0,0-.57.18.84.84,0,0,0-.87-.06,41.36,41.36,0,0,1-18.32,4.13c-6-.11-10.94-2.37-16.6-3.58a.6.6,0,0,0-.47-.12c-8.76,1.41-17.71,5-25.91,8.31-6.46,2.6-12.3,4-14.7,10.92A258.08,258.08,0,0,0,27.39,216a.71.71,0,0,0,0,.94.69.69,0,0,0,.39.43c15.2,15.8,42,19,62.73,18.8,26.17-.22,51.08-9.72,77.2-11.21a1.39,1.39,0,0,0,1.2-1.85A.89.89,0,0,0,169.5,222.15Z"/></g></svg>