<svg id="Calque_1" data-name="Calque 1" xmlns="http://www.w3.org/2000/svg" xmlns:xlink="http://www.w3.org/1999/xlink" viewBox="0 0 200 200"><defs><style>.cls-1,.cls-7{fill:none;}.cls-2{clip-path:url(#clip-path);}.cls-3{fill:#ededed;}.cls-4{fill:#f4e3d6;}.cls-5{fill:#f3d1bb;}.cls-6{fill:#351c05;}.cls-7{stroke:#683c11;stroke-linecap:round;stroke-linejoin:round;stroke-width:0;}.cls-8{fill:#3c3c3b;}</style><clipPath id="clip-path"><circle class="cls-1" cx="100" cy="100" r="100" transform="translate(-41.42 100) rotate(-45)"/></clipPath></defs><title>logoTextPlan de travail 1</title><g class="cls-2"><circle class="cls-3" cx="100" cy="100" r="100" transform="translate(-41.42 100) rotate(-45)"/><path class="cls-4" d="M118.54,139c-4.12-6-6.55-11.8-6.39-19.19a2.07,2.07,0,0,0-2.55-2.1,2.32,2.32,0,0,0-.52-.46c-6.22-4-14.25-3-20.88-.59a1.69,1.69,0,0,0-1,1.14,1.44,1.44,0,0,0-1.2,1.88c2,8.67-1.07,14.44-5.09,21.75A16,16,0,0,0,79.27,154c2.93,9.95,13.22,14.52,23,14,9.43-.53,18.86-5.24,20.25-15.45C123.2,147.37,121.39,143.18,118.54,139Z"/><path class="cls-5" d="M136,79.05a57.92,57.92,0,0,0,.11-13.53c-2.84-22.3-32.6-19.89-48.91-19.78-9.8.07-15.7,4.88-18.33,14.26a72.37,72.37,0,0,0-2.47,19.93,4.79,4.79,0,0,0-4.33,1.46c-1.73,1.85-1.8,4.72-1.52,7.08s1.18,4.9,3.35,6.17a5,5,0,0,0,3.8.6c.06.36.11.72.17,1.08a1.24,1.24,0,0,0,.24.56,43.51,43.51,0,0,0,7.53,17.75c10.26,14,29.23,17.87,42.84,6.39,7.23-6.1,11.49-14.77,13.9-23.77.19-.74.39-1.49.58-2.25a1.87,1.87,0,0,0,.73.11C140.73,94.72,142,80.79,136,79.05Z"/><path class="cls-6" d="M150,56.79l-.08.09a.39.39,0,0,0-.13.15c-5.39,6.31-2-.41-1.65-2.22.49-2.91-.11-5.88-.7-8.72-.1-.45-.71-.29-.75.1-.94,7.73-9.08,8.35-14.47,4.93a62.73,62.73,0,0,1-6.51-4.91,4.46,4.46,0,0,0,2.88-2.31c.24-.38-.16-.77-.54-.7-6.22,1.15-10.62-2.46-16.42-3.81A30.23,30.23,0,0,0,100.37,39a4.61,4.61,0,0,0,.49-3.88A.5.5,0,0,0,100,35c-2,3.61-8.24,1.94-11.49,2.06a25.43,25.43,0,0,0-7.92,1.4c-2.18.81-6.13,2.68-7.13,5.23A33.56,33.56,0,0,1,71.75,38c-.08-.43-.65-.41-.85-.11A11.45,11.45,0,0,0,69,47.4,17.56,17.56,0,0,0,61,55a.48.48,0,0,0,.66.65c.47-.24,4.17-2.19,4.64-.91.11.3-1.51,2.56-1.7,2.95a33.14,33.14,0,0,0-2.16,5.69,64.58,64.58,0,0,0-2,13,.49.49,0,0,0,.9.25,7.22,7.22,0,0,1,1.43-2,13,13,0,0,0-1,6.86l-.1.09c-.28.24.08.7.39.51,1.38-.82,3.26-2.38,4.6.09a8,8,0,0,1,.45,2.2A42.09,42.09,0,0,1,67.7,90a.41.41,0,0,0,.72.23c1.08.19,2.47.54,3.29-.29s.41-3.23.37-4.21c0-1.17-1.15-7.58.58-3.12.1.27.56.34.63,0A39.25,39.25,0,0,0,74,72.16c0-.41,0-.82,0-1.23a.67.67,0,0,0-.2-.54,43,43,0,0,0-.81-4.89,10.05,10.05,0,0,1,1.55,3,.4.4,0,0,0,.77,0,16.82,16.82,0,0,0,1.06-7.47l.55.63a20.57,20.57,0,0,0,13.59,7.77.42.42,0,0,0,.4-.69,9,9,0,0,1-1.6-2.33c-.11-.48-.19-1-.27-1.44,9.6,8.71,23.47,13,36.22,10.47a.41.41,0,0,0-.11-.81L123.36,74a25.61,25.61,0,0,0,5.24.55,28.48,28.48,0,0,1-.59,8.28.51.51,0,0,0,.84.49l.89-.83a12.61,12.61,0,0,1-.9,4.39c-.37,1.07-1,2.32-.91,3.48a1.93,1.93,0,0,0,.84,1.36l.09.09a8.9,8.9,0,0,0,3.31.81.43.43,0,0,0,.54-.41,53.66,53.66,0,0,1,.79-8,8.93,8.93,0,0,1,.55-2.65c1.78-2.84,2.82-1.2,4.44-.45.22.1.49-.18.28-.36l-.05,0a.22.22,0,0,0,.06-.13,22.61,22.61,0,0,0-.93-7.72c6.49-2.5,11.66-7.75,12.74-15.37l0-.05C151,57,150.38,56.33,150,56.79Z"/><path class="cls-7" d="M138.23,80.37a0,0,0,1,0,0,0"/><path class="cls-8" d="M166.51,210.6a1.06,1.06,0,0,0,.21-.73c-.51-10.74-1.65-21.49-3-32.15-1.3-10-2.61-20.42-5.95-30a1,1,0,0,0-1.33-.71,1,1,0,0,0-.21-.08c-7.81-2.23-15.72-4.12-23.53-6.34-4.25-1.2-12.1-5.55-16.3-3.35a.62.62,0,0,0-.33.41c-9.17,7.44-23.25,9-32.28.65l0,0c-.33-.44-.67-.88-1-1.34a.84.84,0,0,0-1.16-.29,5.14,5.14,0,0,0-1.92.13,4.92,4.92,0,0,0-1.41.57c-4.41.39-9.18,3-13,4.24-6.79,2.28-13.64,4.06-20.61,5.72a1,1,0,0,0-.69.55.88.88,0,0,0-.36.23,4.2,4.2,0,0,0-.76,1.17c-2.1,2.45-3.09,5.72-4.13,8.78-1.71,5-3.28,10.09-4.71,15.19-2.74,9.81-4.6,19.73-4.46,29.94-1.67,5.37-.49,12.94,2.2,17.63,3.05,5.3,8.84,8.56,14.46,10.48,15.29,5.24,33.36,4.41,49.29,4.68,17.08.29,34.8,1.41,51.47-3C156.05,230.54,174.64,223.05,166.51,210.6Z"/></g></svg>