<svg id="Calque_1" data-name="Calque 1" xmlns="http://www.w3.org/2000/svg" viewBox="0 0 228.19 46.33"><defs><style>.cls-1{fill:#4e4b4d;}.cls-2{fill:#4eb482;}</style></defs><title>Plan de travail 2</title><path class="cls-1" d="M11.2.15c3.69,0,6.47.93,8.31,2.77a2.35,2.35,0,0,0,.23.33,2.16,2.16,0,0,1,.26,1,2,2,0,0,1-.26,1,2,2,0,0,1-.71.72,1.86,1.86,0,0,1-1,.25,1.79,1.79,0,0,1-.92-.25,1.52,1.52,0,0,1-.37-.26A7.76,7.76,0,0,0,11.2,3.85q-7.39,0-7.39,7.39t7.39,7.39a7.53,7.53,0,0,0,5.54-1.85l.37-.22a2,2,0,0,1,1-.26,1.87,1.87,0,0,1,1,.26,1.89,1.89,0,0,1,.71.72,1.93,1.93,0,0,1,.26.94,1.87,1.87,0,0,1-.26,1l-.23.37c-1.84,1.85-4.62,2.78-8.31,2.78Q.12,22.33.11,11.24T11.2.15Z"/><path class="cls-1" d="M51.35,20.48a1.89,1.89,0,0,1-.24.92,1.62,1.62,0,0,1-.68.69,1.9,1.9,0,0,1-1.85,0,1.67,1.67,0,0,1-.68-.69,1.89,1.89,0,0,1-.24-.92V11.24Q47.66.15,58.75.15T69.83,11.24v9.24a1.89,1.89,0,0,1-.24.92,1.62,1.62,0,0,1-.68.69,1.91,1.91,0,0,1-.92.24,2,2,0,0,1-.93-.24,1.62,1.62,0,0,1-.68-.69,1.89,1.89,0,0,1-.24-.92V11.24q0-7.4-7.39-7.39t-7.4,7.39Z"/><path class="cls-1" d="M94.62.2c0,7.39-9.45,22.13-16.85,22.13H74.08V2a1.89,1.89,0,0,1,.24-.92A1.67,1.67,0,0,1,75,.39a1.94,1.94,0,0,1,.92-.24,1.92,1.92,0,0,1,.93.24,1.67,1.67,0,0,1,.68.69,1.89,1.89,0,0,1,.24.92V18.63C82.7,18.63,90.93,5.13,90.93.2Z"/><polygon class="cls-2" points="108.48 0.17 84.16 46.33 85.29 46.33 109.61 0.17 108.48 0.17"/><path class="cls-2" d="M33.86.15Q22.81.15,22.77,11.24V44.92h3.69V20.22a12.3,12.3,0,0,0,7.4,2.11q11.09,0,11.08-10.94Q44.94.16,33.86.15Zm0,18.48q-7.32,0-7.4-7.39.08-7.43,7.4-7.39t7.39,7.39Q41.33,18.59,33.86,18.63Z"/><path class="cls-1" d="M120.76.53a3.82,3.82,0,0,1,2,.41,1.47,1.47,0,0,1-.55.91,4,4,0,0,0-1.48-.28c-1.4,0-2.52.73-3.1,3.41s.27,3.36,1.66,3.36A5.67,5.67,0,0,0,121,8.06a1.14,1.14,0,0,1,.17.94,5.83,5.83,0,0,1-2.27.4c-2.29,0-3.1-1.68-2.49-4.6S118.46.53,120.76.53Z"/><path class="cls-1" d="M123.92,6.5c-.21,1.43.2,1.88,1.27,1.88A3.41,3.41,0,0,0,126.67,8a1.06,1.06,0,0,1,.21.88,4.33,4.33,0,0,1-2.1.48c-1.85,0-2.45-1.29-2-3.46s1.71-3.09,3.3-3.09c1.43,0,2.19.82,1.85,2.42a5.64,5.64,0,0,1-.4,1.23Zm2-2.7c-.78,0-1.44.52-1.82,1.85h2.6c0-.1.09-.29.15-.54C127,4.4,126.81,3.8,125.92,3.8Z"/><path class="cls-1" d="M133.63,9.2a1.87,1.87,0,0,1-.61.08,1.6,1.6,0,0,1-.59-.08l.93-4.32c.14-.67-.12-1-.89-1a2.1,2.1,0,0,0-1.52.76L130,9.2a2,2,0,0,1-.61.08,1.54,1.54,0,0,1-.59-.08l1.31-6.14A1.75,1.75,0,0,1,130.7,3a1.45,1.45,0,0,1,.57.09l-.12.55A2.68,2.68,0,0,1,133,2.85c1.2,0,1.83.7,1.55,2.07Z"/><path class="cls-1" d="M137.55,7c-.23,1.09-.07,1.41.78,1.41.24,0,.63,0,.63,0a1.31,1.31,0,0,1,0,.48,1.52,1.52,0,0,1-.14.44,3.83,3.83,0,0,1-.89.1c-1.48,0-1.9-.8-1.57-2.32L137,3.87h-.92a1.07,1.07,0,0,1,0-.44,1.34,1.34,0,0,1,.17-.46h.92l.23-1.09a2.4,2.4,0,0,1,1.25-.24L138.41,3H140a1.11,1.11,0,0,1,0,.45,1.62,1.62,0,0,1-.17.45h-1.56Z"/><path class="cls-1" d="M144.24,2.87a1.51,1.51,0,0,1,1,.3,2,2,0,0,1-.71,1,1.06,1.06,0,0,0-.71-.23,2,2,0,0,0-1.43.91l-.94,4.37a1.87,1.87,0,0,1-.61.08,1.44,1.44,0,0,1-.58-.08l1.3-6.14a1.75,1.75,0,0,1,.63-.09,1,1,0,0,1,.52.09l-.12.71A2,2,0,0,1,144.24,2.87Z"/><path class="cls-1" d="M146.57,6.5c-.2,1.43.21,1.88,1.27,1.88A3.43,3.43,0,0,0,149.33,8a1.06,1.06,0,0,1,.2.88,4.31,4.31,0,0,1-2.09.48c-1.85,0-2.45-1.29-2-3.46s1.7-3.09,3.3-3.09c1.43,0,2.18.82,1.85,2.42a5.64,5.64,0,0,1-.4,1.23Zm2-2.7c-.78,0-1.44.52-1.83,1.85h2.6a4.34,4.34,0,0,0,.16-.54C149.65,4.4,149.46,3.8,148.58,3.8Z"/><path class="cls-1" d="M158.67,2.85c1.36,0,2,.95,1.5,3.4s-1.58,3.15-2.94,3.15a1.48,1.48,0,0,1-1.51-.78L155,12a2.28,2.28,0,0,1-.63.07,1.74,1.74,0,0,1-.57-.07l1.89-8.92A1.75,1.75,0,0,1,156.3,3a1.44,1.44,0,0,1,.59.09l-.12.58A2.37,2.37,0,0,1,158.67,2.85Zm-.58,1a1.81,1.81,0,0,0-1.68,1.51l-.33,1.54c-.17.82.18,1.53,1,1.53s1.52-.5,1.9-2.29S159.05,3.84,158.09,3.84Z"/><path class="cls-1" d="M165.28,2.87a1.56,1.56,0,0,1,1,.3,2,2,0,0,1-.72,1,1,1,0,0,0-.71-.23,2,2,0,0,0-1.42.91l-.94,4.37a2,2,0,0,1-.61.08,1.54,1.54,0,0,1-.59-.08l1.31-6.14a1.65,1.65,0,0,1,.62-.09,1,1,0,0,1,.53.09l-.12.71A1.94,1.94,0,0,1,165.28,2.87Z"/><path class="cls-1" d="M169.78,2.85c1.66,0,2.46,1,2,3.37s-1.6,3.18-3.24,3.18-2.49-1-2-3.41S168.14,2.85,169.78,2.85Zm-.14.94c-.88,0-1.55.49-1.95,2.34s.06,2.34.94,2.34,1.53-.49,1.93-2.34S170.51,3.79,169.64,3.79Z"/><path class="cls-1" d="M177,.29a2.91,2.91,0,0,1,1.27.25,1.65,1.65,0,0,1-.5.84,2.75,2.75,0,0,0-.9-.13c-.68,0-.94.31-1.07,1l-.17.77h1.5a1.64,1.64,0,0,1-.05.47,1.81,1.81,0,0,1-.14.43h-1.5L174.26,9.2a2,2,0,0,1-.62.08,1.44,1.44,0,0,1-.58-.08l1.14-5.33h-.79a2.48,2.48,0,0,1,0-.45A2.13,2.13,0,0,1,173.6,3h.79l.15-.71A2.2,2.2,0,0,1,177,.29Z"/><path class="cls-1" d="M178.61,6.5c-.2,1.43.21,1.88,1.27,1.88A3.43,3.43,0,0,0,181.37,8a1.06,1.06,0,0,1,.2.88,4.31,4.31,0,0,1-2.09.48c-1.85,0-2.45-1.29-2-3.46s1.7-3.09,3.3-3.09c1.43,0,2.18.82,1.85,2.42a5.64,5.64,0,0,1-.4,1.23Zm2-2.7c-.78,0-1.44.52-1.83,1.85h2.6a4.34,4.34,0,0,0,.16-.54C181.69,4.4,181.5,3.8,180.62,3.8Z"/><path class="cls-1" d="M186.77,2.85a2.88,2.88,0,0,1,1.62.33,1.53,1.53,0,0,1-.49.85,4.1,4.1,0,0,0-1.23-.19c-.81,0-1.28.3-1.4.86s.58.81,1.28,1.06a1.48,1.48,0,0,1,1.18,1.87c-.26,1.21-1.1,1.77-2.63,1.77A3.74,3.74,0,0,1,183.18,9a1.73,1.73,0,0,1,.52-.89,4.54,4.54,0,0,0,1.56.3c.73,0,1.21-.27,1.33-.86s-.45-.83-1.11-1-1.56-.76-1.29-1.91S185.25,2.85,186.77,2.85Z"/><path class="cls-1" d="M192.3,2.85a2.88,2.88,0,0,1,1.62.33,1.53,1.53,0,0,1-.49.85,4.07,4.07,0,0,0-1.22-.19c-.82,0-1.29.3-1.41.86s.58.81,1.29,1.06a1.47,1.47,0,0,1,1.17,1.87c-.26,1.21-1.1,1.77-2.63,1.77A3.72,3.72,0,0,1,188.72,9a1.66,1.66,0,0,1,.51-.89,4.54,4.54,0,0,0,1.56.3c.73,0,1.21-.27,1.33-.86s-.45-.83-1.11-1-1.56-.76-1.29-1.91S190.78,2.85,192.3,2.85Z"/><path class="cls-1" d="M195.75,9.2a2,2,0,0,1-.61.08,1.54,1.54,0,0,1-.59-.08l1.31-6.14a1.65,1.65,0,0,1,.62-.09,1.41,1.41,0,0,1,.58.09Zm1.61-7.44a1.91,1.91,0,0,1-.64.09,1.5,1.5,0,0,1-.61-.09l.24-1.12A1.81,1.81,0,0,1,197,.55a1.59,1.59,0,0,1,.6.09Z"/><path class="cls-1" d="M201.44,2.85c1.65,0,2.45,1,1.95,3.37s-1.6,3.18-3.24,3.18-2.48-1-2-3.41S199.79,2.85,201.44,2.85Zm-.15.94c-.87,0-1.55.49-1.94,2.34s.06,2.34.93,2.34,1.54-.49,1.93-2.34S202.17,3.79,201.29,3.79Z"/><path class="cls-1" d="M209.33,9.2a2,2,0,0,1-.61.08,1.6,1.6,0,0,1-.59-.08l.92-4.32c.15-.67-.12-1-.88-1a2.12,2.12,0,0,0-1.53.76l-1,4.61a2,2,0,0,1-.61.08,1.54,1.54,0,0,1-.59-.08l1.31-6.14a1.65,1.65,0,0,1,.62-.09,1.47,1.47,0,0,1,.58.09l-.12.55a2.68,2.68,0,0,1,1.86-.76c1.2,0,1.83.7,1.54,2.07Z"/><path class="cls-1" d="M216.16,9.2a2,2,0,0,1-.61.08A1.6,1.6,0,0,1,215,9.2l.92-4.32c.15-.67-.12-1-.88-1a2.12,2.12,0,0,0-1.53.76l-1,4.61a2,2,0,0,1-.61.08,1.54,1.54,0,0,1-.59-.08l1.31-6.14a1.65,1.65,0,0,1,.62-.09,1.53,1.53,0,0,1,.58.09l-.12.55a2.65,2.65,0,0,1,1.85-.76c1.2,0,1.84.7,1.55,2.07Z"/><path class="cls-1" d="M219.62,6.5c-.21,1.43.2,1.88,1.27,1.88A3.41,3.41,0,0,0,222.37,8a1.06,1.06,0,0,1,.21.88,4.33,4.33,0,0,1-2.1.48c-1.85,0-2.45-1.29-2-3.46s1.71-3.09,3.3-3.09c1.43,0,2.19.82,1.85,2.42a5.64,5.64,0,0,1-.4,1.23Zm2-2.7c-.78,0-1.44.52-1.82,1.85h2.6c0-.1.09-.29.15-.54C222.7,4.4,222.51,3.8,221.62,3.8Z"/><path class="cls-1" d="M225.71,9.2a1.87,1.87,0,0,1-.61.08,1.54,1.54,0,0,1-.59-.08L226.4.37A1.73,1.73,0,0,1,227,.29a1.64,1.64,0,0,1,.58.08Z"/><path class="cls-1" d="M114.4,13.22a1.54,1.54,0,0,1,.57.08l-1.88,8.83a1.73,1.73,0,0,1-1,0l.06-.65a2.27,2.27,0,0,1-1.89.85c-1.36,0-2.11-1-1.59-3.4s1.52-3.14,2.89-3.14a1.54,1.54,0,0,1,1.56.77l.69-3.26A2,2,0,0,1,114.4,13.22Zm-2.68,3.55c-1,0-1.53.5-1.92,2.29s0,2.29,1,2.29a1.77,1.77,0,0,0,1.63-1.54l.34-1.54C112.87,17.46,112.55,16.77,111.72,16.77Z"/><path class="cls-1" d="M116.34,16a2.1,2.1,0,0,1,.63-.08,1.48,1.48,0,0,1,.57.08l-.91,4.32c-.14.67.12,1.05.89,1.05a2.06,2.06,0,0,0,1.52-.77l1-4.6a2.18,2.18,0,0,1,.63-.08,1.36,1.36,0,0,1,.57.08l-1.3,6.14a1.36,1.36,0,0,1-.57.08,1.42,1.42,0,0,1-.55-.08l0-.55a2.32,2.32,0,0,1-1.82.74c-1.36,0-1.79-1-1.57-2.06Z"/><path class="cls-1" d="M128.08,16.67c-.25-.78-.43-1.54-.43-1.54h-.05s-.1.8-.35,2l-1.07,5a1.67,1.67,0,0,1-.59.08,1.33,1.33,0,0,1-.54-.08l1.82-8.47a2.77,2.77,0,0,1,.74-.08,2.39,2.39,0,0,1,.71.08l1.77,5.41c.25.78.46,1.6.46,1.6h0s.11-.89.35-2l1.07-5a1.67,1.67,0,0,1,.59-.08,1.27,1.27,0,0,1,.54.08l-1.81,8.47a3.28,3.28,0,0,1-1.44,0Z"/><path class="cls-1" d="M137.08,15.79c1.65,0,2.46,1,1.95,3.37s-1.59,3.17-3.24,3.17-2.48-1-2-3.41S135.43,15.79,137.08,15.79Zm-.15.93c-.87,0-1.54.49-1.94,2.34s.06,2.34.94,2.34,1.53-.49,1.93-2.34S137.81,16.72,136.93,16.72Z"/><path class="cls-1" d="M144.12,15.8a1.56,1.56,0,0,1,1,.3,2,2,0,0,1-.72,1,1,1,0,0,0-.7-.23,2,2,0,0,0-1.43.91l-.94,4.37a1.87,1.87,0,0,1-.61.08,1.54,1.54,0,0,1-.59-.08L141.41,16a1.84,1.84,0,0,1,.62-.08,1.13,1.13,0,0,1,.53.08l-.12.71A2,2,0,0,1,144.12,15.8Z"/><path class="cls-1" d="M151.16,13.22a1.57,1.57,0,0,1,.58.08l-1.88,8.83a1.67,1.67,0,0,1-.52.08,1.78,1.78,0,0,1-.53-.08l.06-.65a2.24,2.24,0,0,1-1.88.85c-1.37,0-2.11-1-1.59-3.4s1.52-3.14,2.89-3.14a1.53,1.53,0,0,1,1.55.77l.7-3.26A2,2,0,0,1,151.16,13.22Zm-2.67,3.55c-1,0-1.54.5-1.92,2.29s0,2.29,1,2.29a1.77,1.77,0,0,0,1.63-1.54l.34-1.54C149.64,17.46,149.32,16.77,148.49,16.77Z"/><path class="cls-1" d="M156.84,19.77a8.7,8.7,0,0,1,.07,1.28H157s.27-.6.64-1.28L159.67,16a2.55,2.55,0,0,1,.63-.08,1.67,1.67,0,0,1,.57.08l-3.42,6.14a3.23,3.23,0,0,1-.73.08,2.74,2.74,0,0,1-.71-.08L155.16,16a2.42,2.42,0,0,1,.65-.08,1.11,1.11,0,0,1,.54.08Z"/><path class="cls-1" d="M166.46,15.91A1.13,1.13,0,0,1,167,16l-1.31,6.14a1.57,1.57,0,0,1-.51.08,1.78,1.78,0,0,1-.53-.08l.06-.65a2.44,2.44,0,0,1-2,.85c-1.37,0-2-1.11-1.48-3.46s1.61-3.08,2.87-3.08c.84,0,1.33.25,1.57.82l.22-.62A1.38,1.38,0,0,1,166.46,15.91Zm-2.19.86c-.85,0-1.46.5-1.87,2.29s-.11,2.29.85,2.29A1.88,1.88,0,0,0,165,19.81l.33-1.54C165.47,17.46,165.1,16.77,164.27,16.77Z"/><path class="cls-1" d="M168.94,16a2.06,2.06,0,0,1,.62-.08,1.51,1.51,0,0,1,.58.08l-.91,4.32c-.15.67.12,1.05.88,1.05a2.08,2.08,0,0,0,1.53-.77l1-4.6a2.14,2.14,0,0,1,.62-.08,1.44,1.44,0,0,1,.58.08l-1.31,6.14a1.27,1.27,0,0,1-.56.08,1.35,1.35,0,0,1-.55-.08l0-.55a2.31,2.31,0,0,1-1.81.74c-1.37,0-1.8-1-1.57-2.06Z"/><path class="cls-1" d="M180.68,13.22a1.57,1.57,0,0,1,.58.08l-1.88,8.83a1.67,1.67,0,0,1-.52.08,1.78,1.78,0,0,1-.53-.08l.06-.65a2.24,2.24,0,0,1-1.88.85c-1.37,0-2.11-1-1.59-3.4s1.52-3.14,2.88-3.14a1.54,1.54,0,0,1,1.56.77l.7-3.26A2,2,0,0,1,180.68,13.22ZM178,16.77c-1,0-1.54.5-1.92,2.29s0,2.29.95,2.29a1.77,1.77,0,0,0,1.63-1.54l.33-1.54C179.16,17.46,178.84,16.77,178,16.77Z"/><path class="cls-1" d="M185,15.79c1.66,0,2.46,1,2,3.37s-1.6,3.17-3.24,3.17-2.48-1-2-3.41S183.4,15.79,185,15.79Zm-.14.93c-.88,0-1.55.49-2,2.34s.06,2.34.94,2.34,1.53-.49,1.93-2.34S185.77,16.72,184.9,16.72Z"/><path class="cls-1" d="M189.29,22.13a2,2,0,0,1-.61.08,1.54,1.54,0,0,1-.59-.08L189.4,16a1.84,1.84,0,0,1,.62-.08,1.57,1.57,0,0,1,.58.08Zm1.61-7.44a1.91,1.91,0,0,1-.64.09,1.5,1.5,0,0,1-.61-.09l.24-1.12a1.87,1.87,0,0,1,.65-.09,1.53,1.53,0,0,1,.6.09Z"/><path class="cls-1" d="M194.62,15.79a3,3,0,0,1,1.62.32,1.54,1.54,0,0,1-.5.85,4.07,4.07,0,0,0-1.22-.19c-.81,0-1.28.3-1.4.86s.57.81,1.28,1.06a1.48,1.48,0,0,1,1.18,1.87c-.27,1.21-1.11,1.77-2.63,1.77A3.74,3.74,0,0,1,191,21.9a1.61,1.61,0,0,1,.52-.89,4.54,4.54,0,0,0,1.56.3c.73,0,1.21-.27,1.33-.86s-.46-.83-1.12-1-1.56-.76-1.28-1.91S193.09,15.79,194.62,15.79Z"/></svg>